<svg width="32" height="32" viewBox="0 0 32 32" fill="none" xmlns="http://www.w3.org/2000/svg">
<path d="M30.5 16C30.5 24.0081 24.0081 30.5 16 30.5C7.99187 30.5 1.5 24.0081 1.5 16C1.5 7.99187 7.99187 1.5 16 1.5C24.0081 1.5 30.5 7.99187 30.5 16Z" fill="white" stroke="#00A082"/>
<path d="M15.9999 30.3181C23.9077 30.3181 30.3181 23.9077 30.3181 15.9999C30.3181 8.09223 23.9077 1.68176 15.9999 1.68176C8.09223 1.68176 1.68176 8.09223 1.68176 15.9999C1.68176 23.9077 8.09223 30.3181 15.9999 30.3181Z" stroke="#00A082" stroke-width="2"/>
<path fill-rule="evenodd" clip-rule="evenodd" d="M7.75781 9.28711C7.75781 8.8524 8.11021 8.5 8.54492 8.5H10.1191C10.5304 8.5 10.8724 8.81666 10.9039 9.22674L11.0297 10.8613H22.7128C22.9367 10.8613 23.15 10.9567 23.2993 11.1235C23.4486 11.2903 23.5199 11.5128 23.4951 11.7353L22.8528 17.5163C22.727 18.6487 21.8106 19.5297 20.6742 19.6109L12.524 20.1931C11.2282 20.2856 10.101 19.3141 10.0014 18.0188L9.39025 10.0742H8.54492C8.11021 10.0742 7.75781 9.72181 7.75781 9.28711ZM11.1508 12.4355L11.5709 17.8981C11.6042 18.3299 11.9799 18.6537 12.4118 18.6228L20.562 18.0407C20.9408 18.0136 21.2463 17.7199 21.2882 17.3425L21.8334 12.4355H11.1508ZM18.7773 23.0615C18.7773 22.4094 19.3059 21.8808 19.958 21.8808H19.9658C20.6179 21.8808 21.1465 22.4094 21.1465 23.0615V23.0693C21.1465 23.7214 20.6179 24.25 19.9658 24.25H19.958C19.3059 24.25 18.7773 23.7214 18.7773 23.0693V23.0615ZM12.874 21.8808C12.2219 21.8808 11.6933 22.4094 11.6933 23.0615V23.0693C11.6933 23.7214 12.2219 24.25 12.874 24.25H12.8819C13.5339 24.25 14.0625 23.7214 14.0625 23.0693V23.0615C14.0625 22.4094 13.5339 21.8808 12.8819 21.8808H12.874Z" fill="#00A082"/>
</svg>
