<svg xmlns="http://www.w3.org/2000/svg" id="gs_imagotipo_color" width="250" height="70" viewBox="0 0 250 70">
    <defs>
        <style>
            .cls-1{fill:#4a4a4a}.cls-3{fill:#00987f}
        </style>
    </defs>
    <path id="Trazado_1641" d="M9.44 36.88v-.09a13.43 13.43 0 0 1 13.61-13.63 14.26 14.26 0 0 1 9 2.68 2.34 2.34 0 0 1 1 1.87A2.28 2.28 0 0 1 30.7 30a2.25 2.25 0 0 1-1.42-.53 10.14 10.14 0 0 0-6.4-2.07c-4.86 0-8.55 4.28-8.55 9.31v.08c0 5.42 3.58 9.42 9 9.42a10.8 10.8 0 0 0 6.37-2v-4.93h-5.26a2 2 0 0 1-2.06-2 2.07 2.07 0 0 1 2.06-2h7.35a2.3 2.3 0 0 1 2.35 2.35v7a3.19 3.19 0 0 1-1.62 2.93 16.77 16.77 0 0 1-9.39 2.88c-8.24 0-13.69-5.87-13.69-13.55" class="cls-1"/>
    <path id="Trazado_1642" d="M38.3 24.72a2.23 2.23 0 0 1 2.27-2.26 2.26 2.26 0 0 1 2.29 2.26v23.39a2.28 2.28 0 0 1-4.56 0z" class="cls-1"/>
    <path id="Trazado_1643" d="M46.41 40.15v-.09A10.61 10.61 0 0 1 67.62 40v.08a10.43 10.43 0 0 1-10.68 10.38 10.32 10.32 0 0 1-10.53-10.31m16.65 0v-.09a6.15 6.15 0 0 0-6.12-6.4c-3.66 0-6 2.88-6 6.35v.08A6.12 6.12 0 0 0 57 46.46a6 6 0 0 0 6.06-6.31" class="cls-1"/>
    <path id="Trazado_1644" d="M79 50.37h-.2a2.8 2.8 0 0 1-2.6-2l-6.63-15.2a3.73 3.73 0 0 1-.25-1.17 2.28 2.28 0 0 1 2.27-2.18 2.32 2.32 0 0 1 2.26 1.65L79 44.7l5.2-13.27a2.3 2.3 0 0 1 2.15-1.6 2.18 2.18 0 0 1 2.2 2.17 2.74 2.74 0 0 1-.25 1.09l-6.68 15.27a2.9 2.9 0 0 1-2.6 2" class="cls-1"/>
    <path id="Trazado_1645" d="M90.17 40.15v-.09a10.62 10.62 0 0 1 21.24-.06v.08a10.62 10.62 0 1 1-21.24.06m16.68 0v-.09a6.15 6.15 0 0 0-6.12-6.4c-3.66 0-6 2.88-6 6.35v.08a6.13 6.13 0 0 0 6.07 6.37 6 6 0 0 0 6.06-6.31" class="cls-1"/>
    <path id="Trazado_1646" d="M116 47.59a1 1 0 0 1-.42-.86 1.09 1.09 0 0 1 1.08-1.11 1 1 0 0 1 .69.26 9.08 9.08 0 0 0 6.31 2.37c2.68 0 4.45-1.43 4.45-3.4v-.06c0-1.85-1-2.91-5.19-3.8-4.6-1-6.72-2.48-6.72-5.77 0-3.15 2.78-5.46 6.57-5.46a10.22 10.22 0 0 1 6.37 2 1.17 1.17 0 0 1 .49.92 1.106 1.106 0 0 1-1.74.88 8.37 8.37 0 0 0-5.17-1.74c-2.6 0-4.26 1.43-4.26 3.23V35c0 1.89 1 2.95 5.43 3.89s6.51 2.6 6.51 5.65v.06c0 3.43-2.86 5.65-6.83 5.65a11.7 11.7 0 0 1-7.57-2.66z" class="cls-1"/>
    <path id="Trazado_1647" d="M139.24 32.08h-5.8a1 1 0 0 1-1.06-1 1.07 1.07 0 0 1 1.06-1.08h13.88a1.07 1.07 0 0 1 1.06 1.05 1 1 0 0 1-1.06 1h-5.8V49a1.14 1.14 0 1 1-2.28 0z" class="cls-1"/>
    <path id="Trazado_1648" d="M149 40.05V40a10.2 10.2 0 1 1 20.39-.05V40a10.2 10.2 0 1 1-20.39.06zm18 0V40a7.94 7.94 0 0 0-7.88-8.25 7.86 7.86 0 0 0-7.83 8.2V40a8 8 0 0 0 7.89 8.26 7.881 7.881 0 0 0 7.89-8.21z" class="cls-1"/>
    <path id="Trazado_1649" d="M173.37 31.14a1.14 1.14 0 0 1 1.12-1.14H182a7.84 7.84 0 0 1 5.68 2 5.49 5.49 0 0 1 1.55 3.94V36c0 3.29-2.23 5.2-5.34 5.8l5 6.4a1.26 1.26 0 0 1 .37.83 1.18 1.18 0 0 1-1.15 1.11 1.32 1.32 0 0 1-1.05-.6l-5.63-7.31h-5.74V49a1.13 1.13 0 1 1-2.26 0zm8.4 9c3 0 5.14-1.54 5.14-4.11V36c0-2.45-1.88-3.94-5.11-3.94h-6.17v8.11z" class="cls-1"/>
    <path id="Trazado_1650" d="M193.29 48.85V31.14a1.14 1.14 0 0 1 1.12-1.14h12.42a1 1 0 0 1 0 2h-11.28v6.83h10a1 1 0 0 1 0 2h-10v7H207a1.085 1.085 0 0 1 0 2.17h-12.59a1.14 1.14 0 0 1-1.12-1.15z" class="cls-1"/>
    <path id="Trazado_1651" fill="#ffcb1d" d="M240.53 34.82l-5.17-19.31a1 1 0 0 0-1.14-.74l-17.56 4.71a1 1 0 0 0-.62 1.2L221.21 40z"/>
    <path id="Trazado_1652" d="M241.26 34.63l-5.18-19.32a1.72 1.72 0 0 0-2.08-1.26l-3.22.86-.78-3.13a.74.74 0 0 0-.35-.46l-1.23-.71a.75.75 0 0 0-.57-.07l-7.72 2.07a.74.74 0 0 0-.46.35l-.71 1.22a.75.75 0 0 0-.07.57l.84 3.14-3.23.87a1.7 1.7 0 0 0-1.15 2.12l5.18 19.31a.74.74 0 0 0 .72.56.69.69 0 0 0 .2 0l19.32-5.17a.76.76 0 0 0 .49-.95zm-20.88-20l.39-.68 7.13-1.91.69.39.76 2.84-8.21 2.2zm1.36 24.42l-5-18.59c0-.14 0-.27.09-.28l8.78-2.36 4.83-1.29 3.95-1.06a.25.25 0 0 1 .2.2l5 18.59z" class="cls-1"/>
    <path id="Trazado_1653" d="M229.1 25.65v.14l-.75 2-1.64-1.37-.13-.1a1.7 1.7 0 0 1-.55-.84 1.65 1.65 0 1 1 3.18-.85 1.56 1.56 0 0 1-.06 1M226.74 22a3.23 3.23 0 0 0-1.22 5.62l.12.09 2.24 1.87a.77.77 0 0 0 .72.15l.39-.11a.8.8 0 0 0 .55-.49l1-2.73v-.14a3.17 3.17 0 0 0 .1-2 3.21 3.21 0 0 0-3.9-2.26" class="cls-3"/>
    <path id="Trazado_1654" d="M228.3 31.27a.9.9 0 0 1 1.7-.47.9.9 0 0 1-1.73.46" class="cls-3"/>
    <path id="Rectángulo_1279" fill="none" d="M0 0H250V70H0z"/>
</svg>
