<svg width="16" height="17" viewBox="0 0 16 17" fill="none" xmlns="http://www.w3.org/2000/svg">
<path fill-rule="evenodd" clip-rule="evenodd" d="M12.375 2.37012C11.4775 2.37012 10.75 3.09765 10.75 3.99512C10.75 4.89258 11.4775 5.62012 12.375 5.62012C13.2725 5.62012 14 4.89258 14 3.99512C14 3.09765 13.2725 2.37012 12.375 2.37012ZM8.75 3.99512C8.75 1.99308 10.373 0.370117 12.375 0.370117C14.377 0.370117 16 1.99308 16 3.99512C16 5.99715 14.377 7.62012 12.375 7.62012C10.373 7.62012 8.75 5.99715 8.75 3.99512Z" fill="#292929"/>
<path fill-rule="evenodd" clip-rule="evenodd" d="M3.625 11.1201C2.72754 11.1201 2 11.8477 2 12.7451C2 13.6426 2.72754 14.3701 3.625 14.3701C4.52246 14.3701 5.25 13.6426 5.25 12.7451C5.25 11.8477 4.52246 11.1201 3.625 11.1201ZM0 12.7451C0 10.7431 1.62297 9.12012 3.625 9.12012C5.62703 9.12012 7.25 10.7431 7.25 12.7451C7.25 14.7471 5.62703 16.3701 3.625 16.3701C1.62297 16.3701 0 14.7471 0 12.7451Z" fill="#292929"/>
<path fill-rule="evenodd" clip-rule="evenodd" d="M8.75 10.1201C8.75 9.56783 9.19772 9.12012 9.75 9.12012H15C15.5523 9.12012 16 9.56783 16 10.1201V14.3701C16 15.4747 15.1046 16.3701 14 16.3701H10.75C9.64543 16.3701 8.75 15.4747 8.75 14.3701V10.1201ZM10.75 11.1201V14.3701H14V11.1201H10.75Z" fill="#292929"/>
<path fill-rule="evenodd" clip-rule="evenodd" d="M0 1.37012C0 0.817832 0.447715 0.370117 1 0.370117H6.25C6.80228 0.370117 7.25 0.817832 7.25 1.37012V5.62012C7.25 6.72469 6.35457 7.62012 5.25 7.62012H2C0.89543 7.62012 0 6.72469 0 5.62012V1.37012ZM2 2.37012V5.62012H5.25V2.37012H2Z" fill="#292929"/>
</svg>
